High-strung father-to-be Peter Highman is forced to hitch a ride with aspiring actor Ethan Tremblay on a road trip in order to make it to his child's birth on time.




 Emily Wagner as Flight Attendent
 Marco Rodríguez as Federali Agent
 Robert Downey Jr. as Peter Highman
 Jamie Foxx as Darryl
 Danny McBride as Lonnie
 RZA as Airport Screener
 Matt Walsh as TSA Agent
 Aaron Lustig as Dr. Greene
 Charlie Sheen as Charlie Harper
 Steven M. Gagnon as Air Marshall
 Michelle Monaghan as Sarah Highman
 Zach Galifianakis as Ethan Tremblay, Ethan Chase
 Juliette Lewis as Heidi




Format                           : AVI
Format/Info                      : Audio Video Interleave
File size                        : 799 MiB
Duration                         : 1h 35mn
Overall bit rate                 : 1 173 Kbps
Writing application              : VirtualDubMod 1.5.4.1 (build 2178/release)
Writing library                  : VirtualDubMod build 2178/release

Video
ID                               : 0
Format                           : MPEG-4 Visual
Format profile                   : Advanced Simple@L5
Format settings, BVOP            : No
Format settings, QPel            : No
Format settings, GMC             : No warppoints
Format settings, Matrix          : Custom
Codec ID                         : XVID
Codec ID/Hint                    : XviD
Duration                         : 1h 35mn
Bit rate                         : 1 038 Kbps
Width                            : 608 pixels
Height                           : 256 pixels
Display aspect ratio             : 2.35:1
Frame rate                       : 23.976 fps
Color space                      : YUV
Chroma subsampling               : 4:2:0
Bit depth                        : 8 bits
Scan type                        : Progressive
Compression mode                 : Lossy
Bits/(Pixel*Frame)               : 0.278
Stream size                      : 707 MiB (88%)
Writing library                  : XviD 1.2.1 (UTC 2008-12-04)

Audio
ID                               : 1
Format                           : MPEG Audio
Format version                   : Version 1
Format profile                   : Layer 3
Mode                             : Joint stereo
Mode extension                   : MS Stereo
Codec ID                         : 55
Codec ID/Hint                    : MP3
Duration                         : 1h 35mn
Bit rate mode                    : Variable
Bit rate                         : 122 Kbps
Nominal bit rate                 : 129 Kbps
Channel(s)                       : 2 channels
Sampling rate                    : 48.0 KHz
Compression mode                 : Lossy
Stream size                      : 83.3 MiB (10%)
Alignment                        : Aligned on interleaves
Interleave, duration             : 24 ms (0.58 video frame)
Interleave, preload duration     : 483 ms
Writing library                  : LAME3.98b


 
http://img695.imageshack.us/img695/1926/vlcsnap2011013015h45m56.png 
http://img708.imageshack.us/img708/2129/vlcsnap2011013015h47m36.png 
http://img691.imageshack.us/img691/6037/vlcsnap2011013015h47m44.png

